# xmcd CD database file
#
# Track frame offsets:
#	150
#	19560
#	42057
#	64957
#	86415
#	121902
#	137357
#	158740
#	188412
#	214272
#
# Disc length: 3424 seconds
#
# Revision: 8
# Processed by: cddbd v1.5.2PL0 Copyright (c) Steve Scherf et al.
# Submitted via: CDex 1.51
#
DISCID=760d5e0a
DTITLE=Various Artist - A Tribute To Stevie Ray Vaughan
DYEAR=1996
DGENRE=Blues
TTITLE0=Bonnie Raitt - Pride And Joy
TTITLE1=Jimmie Vaughan - Texas Flood
TTITLE2=B.B. King - Telephone Song
TTITLE3=Buddy Guy - Long Way from Home
TTITLE4=Eric Clapton - Ain't Gone 'N' Give up on Love
TTITLE5=Robert Cray - Love Struck Baby
TTITLE6=Dr. John - Cold Shot
TTITLE7=Jimmie Vaughan, Eric Clapton and Bonnie Raitt - Six Strings Down
TTITLE8=Jimmie Vaughan, Eric Clapton and Bonnie Raitt - Tick Tock
TTITLE9=Jimmie Vaughan, Eric Clapton and Bonnie Raitt - SRV Shuffle
EXTD=YEAR: 1996
EXTT0=
EXTT1=
EXTT2=
EXTT3=
EXTT4=
EXTT5=
EXTT6=
EXTT7=
EXTT8=
EXTT9=
PLAYORDER=
